PathFileType	4	(X/Y/Z)	C:/Users/opensim2020/Desktop/walking_exp_matlab/subject03_walking14_straight_03.trc																																																																																																																																											
DataRate	CameraRate	NumFrames	NumMarkers	Units	OrigDataRate	OrigDataStartFrame	OrigNumFrames																																																																																																																																							
100	100	4	47	mm	100	1582	215																																																																																																																																							
Frame#	Time	LFHD			RFHD			LBHD			RBHD			C7			T10			CLAV			STRN			RBAK			LSHO			LUPA			LELB			LFRM			LWRA			LWRB			LFIN			RSHO			RUPA			RELB			RFRM			RWRA			RWRB			RFIN			LASI			RASI			LPSI			RPSI			LTHI			LKNE			LTIB			LANK			LHEE			LTOE			RTHI			RKNE			RTIB			RANK			RHEE			RTOE			*39			*40			*41			*42			*43			*44			*45			*46		
		X1	Y1	Z1	X2	Y2	Z2	X3	Y3	Z3	X4	Y4	Z4	X5	Y5	Z5	X6	Y6	Z6	X7	Y7	Z7	X8	Y8	Z8	X9	Y9	Z9	X10	Y10	Z10	X11	Y11	Z11	X12	Y12	Z12	X13	Y13	Z13	X14	Y14	Z14	X15	Y15	Z15	X16	Y16	Z16	X17	Y17	Z17	X18	Y18	Z18	X19	Y19	Z19	X20	Y20	Z20	X21	Y21	Z21	X22	Y22	Z22	X23	Y23	Z23	X24	Y24	Z24	X25	Y25	Z25	X26	Y26	Z26	X27	Y27	Z27	X28	Y28	Z28	X29	Y29	Z29	X30	Y30	Z30	X31	Y31	Z31	X32	Y32	Z32	X33	Y33	Z33	X34	Y34	Z34	X35	Y35	Z35	X36	Y36	Z36	X37	Y37	Z37	X38	Y38	Z38	X39	Y39	Z39	X40	Y40	Z40	X41	Y41	Z41	X42	Y42	Z42	X43	Y43	Z43	X44	Y44	Z44	X45	Y45	Z45	X46	Y46	Z46	X47	Y47	Z47
																																																																																																																																														
1	0	-1374.92139	1610.62878	1301.89197	-1360.46899	1615.64368	1433.25049	-1491.6665	1545.50537	1319.99719	-1473.67249	1551.19153	1449.39722	-1506.86243	1409.57507	1374.26489	-1579.55908	1106.83557	1389.96484	-1389.93994	1324.02258	1368.63354	-1372.61523	1151.43896	1360.33948	-1565.92334	1246.06042	1481.76685	-1435.23706	1364.73535	1216.82678	-1441.58301	1164.07715	1158.84888	-1434.37366	1039.08679	1167.71997	-1428.80884	910.0722	1190.8667	-1447.02917	792.35406	1226.1748	-1434.02271	795.97711	1174.00769	-1450.72717	711.09686	1188.11841	-1417.91589	1353.85193	1531.06458	-1437.85999	1135.16479	1611.02905	-1435.71155	1023.41882	1630.08398	-1433.6394	886.86035	1640.5741	-1411.64722	788.07947	1613.01758	-1445.81445	788.48096	1654.04309	-1419.80481	722.14026	1657.55469	-1462.40283	915.14825	1262.58606	-1422.61975	933.79797	1494.01025	-1609.23572	963.21887	1337.47461	-1583.45862	976.29907	1481.66003	-1583.42761	626.59204	1249.51196	-1605.43896	455.30835	1295.67773	-1696.54797	277.43433	1302.08862	-1790.81372	92.2519	1348.24524	-1789.64685	38.52171	1392.66638	-1603.24219	34.63465	1340.60803	-1398.9895	665.21222	1570.36682	-1321.72107	503.14117	1542.79199	-1338.3208	309.84253	1559.62585	-1336.97717	90.61611	1527.87988	-1378.93433	52.75986	1478.63879	-1197.18335	61.3247	1502.37793	-1749.48633	71.302	1349.61108	NaN	NaN	NaN	NaN	NaN	NaN	NaN	NaN	NaN	NaN	NaN	NaN	NaN	NaN	NaN	NaN	NaN	NaN	NaN	NaN	NaN
2	0.01	-1368.67224	1609.14514	1303.70447	-1354.37817	1614.06714	1435.13232	-1485.07971	1543.66125	1321.60181	-1467.29126	1549.11462	1451.00159	-1500.21216	1408.31189	1374.94763	-1573.68884	1105.55334	1390.13965	-1383.32629	1322.65881	1369.93384	-1366.17847	1150.15271	1361.70972	-1560.16858	1244.69336	1481.9364	-1427.83569	1363.50122	1218.09485	-1429.271	1162.97314	1160.66479	-1423.70532	1037.80554	1169.29431	-1417.63416	908.60242	1192.81714	-1434.31018	791.64441	1227.86536	-1419.91711	795.04779	1176.53503	-1433.42554	710.13556	1191.48865	-1412.1051	1352.03589	1532.28174	-1433.60913	1133.56604	1612.07971	-1432.3772	1021.87299	1631.67725	-1432.15881	885.3667	1642.94312	-1411.21338	786.19427	1616.33044	-1445.88	787.16479	1656.88672	-1421.4314	720.39948	1661.05969	-1455.85388	913.95496	1263.03674	-1416.57837	932.42511	1494.72827	-1602.99524	961.55328	1337.66614	-1577.58801	974.28546	1481.89709	-1577.15015	625.34167	1249.37195	-1600.91162	454.13049	1295.26208	-1693.99158	277.3504	1301.77368	-1789.10193	92.48811	1347.8042	-1789.67896	39.80005	1392.77661	-1602.98401	34.43438	1340.56628	-1392.96875	663.37683	1571.17493	-1314.77112	502.19858	1543.05408	-1325.94116	308.79904	1560.05286	-1317.17603	89.64555	1528.38916	-1357.99915	50.91226	1479.02551	-1176.46082	63.84187	1502.68909	-1749.03503	71.73635	1349.41284	-1454.20752	1654.42554	1365.01636	NaN	NaN	NaN	NaN	NaN	NaN	NaN	NaN	NaN	NaN	NaN	NaN	NaN	NaN	NaN	NaN	NaN	NaN
3	0.02	-1362.37354	1607.80273	1305.56689	-1347.85376	1612.23279	1437.02441	-1478.39929	1541.93152	1323.22949	-1460.73743	1547.09241	1452.6665	-1493.35864	1406.94873	1375.76086	-1567.43127	1104.25269	1390.47449	-1376.69788	1320.93213	1371.30151	-1359.82239	1148.34998	1362.87427	-1554.12524	1243.271	1482.13989	-1420.25452	1362.01819	1219.30701	-1418.95251	1162.10767	1161.99194	-1412.53271	1036.76221	1170.64771	-1404.58813	907.922	1194.59338	-1421.25513	791.04718	1229.12341	-1405.47546	794.23071	1178.63025	-1415.67297	709.51086	1194.91504	-1406.18909	1350.31897	1533.52051	-1429.13306	1131.91382	1613.34448	-1428.79639	1020.33484	1633.24573	-1430.34082	883.88068	1645.22302	-1410.36792	784.29358	1619.4624	-1445.63721	785.95276	1659.68457	-1422.4082	718.41748	1664.16772	-1448.98499	912.93188	1263.25977	-1410.14734	931.00293	1495.20483	-1596.54944	959.81409	1338.03088	-1571.33826	972.22131	1482.29028	-1571.24414	624.5575	1249.38184	-1596.4502	453.34885	1295.13538	-1691.36987	277.33011	1301.59949	-1787.32507	92.78795	1347.50378	-1789.89502	40.99783	1392.51331	-1602.72302	34.34829	1340.59521	-1386.89709	661.35809	1571.93213	-1307.67346	500.85403	1543.37988	-1313.61499	307.80341	1560.42749	-1297.99353	89.02687	1529.04614	-1337.55664	49.03524	1479.29187	-1156.53516	66.78382	1503.82861	-1748.8783	72.61224	1349.39539	NaN	NaN	NaN	NaN	NaN	NaN	NaN	NaN	NaN	NaN	NaN	NaN	NaN	NaN	NaN	NaN	NaN	NaN	NaN	NaN	NaN
4	0.03	-1355.34314	1606.29724	1307.54126	-1341.26379	1610.60144	1439.08154	-1471.43542	1540.11072	1324.89221	-1453.93274	1545.01563	1454.37952	-1486.3606	1405.50122	1376.76184	-1560.93054	1102.78503	1390.80017	-1369.79407	1319.35193	1372.60852	-1353.11719	1146.78406	1364.13464	-1547.84753	1241.76672	1482.37769	-1412.23596	1360.39343	1220.6272	-1411.31958	1160.60413	1162.59412	-1401.58936	1035.68921	1171.52173	-1392.41235	906.66449	1195.79358	-1407.97595	790.4563	1230.25049	-1390.80957	793.42023	1180.59424	-1397.70813	709.26398	1198.20227	-1399.94592	1348.52405	1534.85962	-1424.35388	1130.25	1614.59705	-1424.95435	1018.76117	1634.76636	-1428.09119	882.37683	1647.46277	-1409.05005	782.29791	1622.56543	-1444.91187	784.81091	1662.64673	-1423.17822	716.76978	1667.2644	-1442.05237	911.7821	1263.63916	-1403.75903	929.44476	1495.78564	-1589.88293	957.97107	1338.5459	-1564.8667	970.10168	1482.71741	-1564.72241	623.17206	1249.39307	-1591.90808	452.27634	1294.75562	-1688.68506	277.38187	1301.23853	-1785.48474	93.15985	1347.01672	-1789.52551	41.8365	1392.15747	-1602.55286	34.14896	1340.53333	-1379.50452	659.00641	1572.75659	-1300.70398	499.54758	1543.69653	-1301.53564	307.02365	1560.80603	-1279.69165	88.86042	1529.68396	-1317.80774	47.70682	1479.88184	-1137.47278	69.96884	1505.40845	-1748.22437	73.1444	1348.8468	-1441.2793	1650.77356	1368.94299	NaN	NaN	NaN	NaN	NaN	NaN	NaN	NaN	NaN	NaN	NaN	NaN	NaN	NaN	NaN	NaN	NaN	NaN
